<?xml version="1.0" encoding="utf-8"?>
<!-- Generator: Adobe Illustrator 16.0.0, SVG Export Plug-In . SVG Version: 6.00 Build 0)  -->
<!DOCTYPE svg PUBLIC "-//W3C//DTD SVG 1.1//EN" "http://www.w3.org/Graphics/SVG/1.1/DTD/svg11.dtd">
<svg version="1.1" id="Layer_1" xmlns="http://www.w3.org/2000/svg" xmlns:xlink="http://www.w3.org/1999/xlink" x="0px" y="0px"
	 width="128px" height="128px" viewBox="0 0 128 128" enable-background="new 0 0 128 128" xml:space="preserve">
<g>
	<path fill="#0FB2B6" d="M98.007,109.988H29.993c-1.605,0-2.907-1.254-2.907-2.801V20.811c0-1.546,1.302-2.799,2.907-2.799h68.014
		c1.605,0,2.907,1.253,2.907,2.799v86.377C100.914,108.734,99.612,109.988,98.007,109.988"/>
	<rect x="33.87" y="25.235" fill="#FFFFFF" width="60.79" height="2.995"/>
	<rect x="33.87" y="34.779" fill="#FFFFFF" width="60.79" height="2.995"/>
	<rect x="33.87" y="44.323" fill="#FFFFFF" width="60.79" height="2.996"/>
	<rect x="33.87" y="53.867" fill="#FFFFFF" width="60.79" height="2.996"/>
	<rect x="33.87" y="63.412" fill="#FFFFFF" width="60.79" height="2.996"/>
	<rect x="33.87" y="72.957" fill="#FFFFFF" width="31.541" height="2.994"/>
	<rect x="33.87" y="82.5" fill="#FFFFFF" width="31.541" height="2.996"/>
	<g>
		<path fill="#FCBC55" d="M70.382,87.967c0.069-0.205,0.191-0.617,0.352-1.012c0.16-0.402,0.358-0.787,0.539-1.178
			c0.13-0.283,0.077-0.521-0.178-0.705c-0.339-0.246-0.688-0.48-1.021-0.736c-0.28-0.219-0.569-0.436-0.806-0.697
			c-0.545-0.604-0.556-1.34,0.018-1.918c0.389-0.395,0.856-0.717,1.311-1.041c0.892-0.639,0.896-0.637,0.442-1.627
			c-0.207-0.451-0.431-0.898-0.575-1.369c-0.283-0.906,0.121-1.615,1.055-1.799c0.646-0.127,1.312-0.16,1.969-0.205
			c0.418-0.029,0.575-0.236,0.596-0.631c0.031-0.559,0.075-1.117,0.142-1.672c0.14-1.145,0.926-1.652,2.007-1.277
			c0.502,0.176,0.978,0.428,1.464,0.646c0.695,0.313,0.771,0.295,1.224-0.33c0.247-0.342,0.478-0.695,0.729-1.027
			c0.146-0.191,0.31-0.375,0.491-0.531c0.603-0.523,1.321-0.549,1.892,0.008c0.413,0.404,0.751,0.895,1.089,1.367
			c0.594,0.832,0.649,0.852,1.574,0.422c0.47-0.221,0.941-0.457,1.437-0.605c0.86-0.26,1.548,0.121,1.737,0.996
			c0.143,0.654,0.173,1.336,0.221,2.006c0.028,0.4,0.189,0.605,0.601,0.625c0.521,0.027,1.04,0.08,1.559,0.129
			c0.15,0.014,0.303,0.041,0.45,0.08c0.88,0.227,1.296,0.896,1.023,1.764c-0.178,0.566-0.457,1.102-0.699,1.646
			c-0.303,0.686-0.287,0.764,0.311,1.201c0.4,0.293,0.821,0.561,1.204,0.873c1.027,0.836,1.036,1.77,0.02,2.615
			c-0.438,0.365-0.915,0.686-1.389,1.01c-0.347,0.236-0.405,0.523-0.23,0.889c0.193,0.398,0.395,0.797,0.563,1.209
			c0.118,0.293,0.233,0.598,0.272,0.906c0.093,0.742-0.25,1.287-0.983,1.451c-0.616,0.137-1.258,0.164-1.89,0.225
			c-0.719,0.07-0.741,0.076-0.815,0.777c-0.055,0.504-0.069,1.014-0.132,1.518c-0.148,1.205-0.963,1.707-2.095,1.275
			c-0.532-0.203-1.037-0.477-1.563-0.701c-0.466-0.199-0.599-0.162-0.908,0.246c-0.223,0.295-0.415,0.611-0.641,0.902
			c-0.217,0.281-0.436,0.57-0.696,0.807c-0.605,0.555-1.377,0.561-1.949-0.029c-0.412-0.426-0.748-0.928-1.102-1.408
			c-0.551-0.75-0.592-0.764-1.43-0.381c-0.473,0.217-0.94,0.457-1.435,0.617c-0.947,0.311-1.653-0.086-1.853-1.064
			c-0.126-0.621-0.135-1.264-0.202-1.895c-0.058-0.543-0.131-0.607-0.689-0.654c-0.569-0.047-1.142-0.074-1.709-0.15
			C70.854,89.418,70.38,88.91,70.382,87.967 M81.107,74.281c-4.717,0.033-8.457,3.813-8.425,8.512
			c0.03,4.605,3.856,8.328,8.52,8.295c4.553-0.035,8.316-3.854,8.29-8.412C89.464,78.043,85.678,74.252,81.107,74.281"/>
		<path fill="#FCBC55" d="M83.938,93.084c0.629,0.275,1.204,0.543,1.793,0.777c0.471,0.188,0.963,0.234,1.457,0.072
			c0.925-0.301,1.271-1.035,1.392-1.914c0.061-0.439,0.052-0.891,0.104-1.33c0.017-0.135,0.105-0.32,0.212-0.369
			c0.192-0.088,0.389-0.084,0.537,0.174c1.102,1.904,2.221,3.797,3.338,5.691c0.14,0.238,0.229,0.508,0.024,0.701
			c-0.163,0.154-0.437,0.281-0.654,0.27c-1.041-0.055-2.081-0.152-3.117-0.258c-0.259-0.025-0.383,0.039-0.489,0.279
			c-0.423,0.953-0.873,1.893-1.304,2.842c-0.124,0.271-0.298,0.541-0.601,0.488c-0.225-0.039-0.49-0.227-0.609-0.424
			c-1.031-1.709-2.03-3.438-3.047-5.154c-0.12-0.201-0.135-0.338,0.024-0.535C83.326,93.979,83.62,93.531,83.938,93.084"/>
		<path fill="#FCBC55" d="M78.24,93.098c0.351,0.486,0.699,0.955,1.026,1.438c0.046,0.066,0.021,0.221-0.026,0.303
			c-1.036,1.779-2.073,3.559-3.124,5.33c-0.305,0.516-0.865,0.484-1.127-0.063c-0.462-0.975-0.915-1.955-1.354-2.941
			c-0.102-0.225-0.216-0.289-0.461-0.264c-1.024,0.104-2.052,0.18-3.078,0.271c-0.297,0.025-0.563-0.008-0.737-0.283
			c-0.178-0.281-0.063-0.527,0.086-0.781c1.092-1.85,2.175-3.705,3.275-5.551c0.074-0.123,0.248-0.229,0.393-0.26
			c0.268-0.059,0.371,0.104,0.389,0.369c0.036,0.568,0.052,1.148,0.165,1.703c0.269,1.311,1.328,1.939,2.606,1.537
			C76.935,93.695,77.563,93.381,78.24,93.098"/>
		<path fill="#FCBC55" d="M81.075,89.844c-3.95-0.004-7.158-3.223-7.153-7.178c0.006-3.92,3.229-7.139,7.157-7.146
			c3.955-0.008,7.183,3.236,7.17,7.205C88.237,86.65,85.016,89.846,81.075,89.844 M79.686,85.053
			c-0.091-0.143-0.153-0.289-0.26-0.396c-0.639-0.654-1.29-1.299-1.936-1.947c-0.056-0.057-0.105-0.113-0.164-0.162
			c-0.298-0.258-0.643-0.268-0.891-0.025c-0.258,0.25-0.259,0.621,0.031,0.916c0.892,0.906,1.794,1.803,2.696,2.701
			c0.475,0.473,0.736,0.469,1.216-0.012c1.729-1.727,3.456-3.455,5.182-5.182c0.072-0.072,0.146-0.143,0.21-0.221
			c0.213-0.264,0.202-0.6-0.021-0.83c-0.24-0.25-0.572-0.262-0.856-0.025c-0.087,0.074-0.164,0.158-0.246,0.24
			c-1.52,1.52-3.04,3.041-4.562,4.561C79.988,84.768,79.888,84.861,79.686,85.053"/>
	</g>
</g>
</svg>
