<?xml version="1.0" encoding="utf-8"?>
<!-- Generator: Adobe Illustrator 16.0.0, SVG Export Plug-In . SVG Version: 6.00 Build 0)  -->
<!DOCTYPE svg PUBLIC "-//W3C//DTD SVG 1.1//EN" "http://www.w3.org/Graphics/SVG/1.1/DTD/svg11.dtd">
<svg version="1.1" id="Layer_1" xmlns="http://www.w3.org/2000/svg" xmlns:xlink="http://www.w3.org/1999/xlink" x="0px" y="0px"
	 width="128px" height="128px" viewBox="0 0 128 128" enable-background="new 0 0 128 128" xml:space="preserve">
<g>
	<path fill-rule="evenodd" clip-rule="evenodd" fill="#0FB2B6" d="M93.553,99.906c-7.453,0-14.773,0-21.967,0
		c-1.832-6.16-4.271-12.05-6.367-18.062c-0.79-2.259-1.628-4.503-2.46-6.747c-0.829-2.234-2.39-3.342-4.766-3.352
		c-4.095-0.017-8.189-0.007-12.283-0.008c-0.334,0-0.668,0-0.986,0c-0.646-3.584,1.568-6.364,5.417-7.35
		c4.246-1.086,8.459-2.327,12.619-3.706c1.471-0.488,2.741-1.583,4.099-2.406c0.194-0.117,0.369-0.264,0.796-0.573
		c-0.132,10.085,1.776,19.625,4.368,29.113c0.098-0.874,0.208-1.751,0.289-2.628c0.54-5.85,1.064-11.699,1.617-17.547
		c0.144-1.501,0.209-1.519,1.698-1.517c2.27,0.001,2.24,0.004,2.44,2.25c0.581,6.522,1.188,13.043,1.976,19.591
		c0.183-0.655,0.386-1.307,0.548-1.97c1.631-6.662,2.918-13.388,3.494-20.23c0.169-1.99,0.135-3.997,0.212-5.995
		c0.011-0.252,0.132-0.5,0.201-0.75c0.226,0.12,0.493,0.195,0.671,0.366c1.266,1.234,2.812,1.983,4.463,2.505
		c3.426,1.083,6.862,2.126,10.304,3.152c0.878,0.262,1.812,0.338,2.688,0.604c2.964,0.898,4.473,2.947,4.651,6.026
		c0.435,7.433,0.916,14.863,1.372,22.294c0.141,2.271,0.262,4.543,0.396,6.898c-0.285,0.023-0.549,0.064-0.813,0.064
		c-3.048,0.005-6.096-0.018-9.144,0.023c-0.732,0.008-1.011-0.201-1.1-0.946c-0.333-2.807-0.744-5.604-1.104-8.408
		c-0.092-0.715-0.516-0.921-0.982-0.499c-0.612,0.556-1.318,1.217-1.53,1.962c-0.434,1.523-0.619,3.123-0.797,4.705
		C93.463,97.767,93.553,98.787,93.553,99.906z"/>
	<path fill-rule="evenodd" clip-rule="evenodd" fill="#FCBC55" d="M47.571,100.097c-6.4,0-12.8-0.011-19.2,0.016
		c-0.715,0-1.097-0.181-1.354-0.898c-2.615-7.302-5.27-14.591-7.903-21.886c-0.505-1.398,0.242-2.35,1.845-2.351
		c6.369-0.008,12.739-0.005,19.108-0.005c5.815,0,11.631,0.002,17.446,0.002c1.479,0,1.921,0.286,2.412,1.637
		c2.669,7.348,5.334,14.696,7.998,22.047c0.439,1.215,0.292,1.436-0.968,1.438C60.494,100.099,54.033,100.097,47.571,100.097z"/>
	<path fill-rule="evenodd" clip-rule="evenodd" fill="#0FB2B6" d="M88.617,31.47c0.11,1.622,0.183,3.248,0.342,4.866
		c0.192,1.939-0.455,3.465-1.958,4.707c-0.444,0.366-0.761,0.941-1.006,1.48c-1.969,4.34-5.132,7.191-9.979,7.727
		c-2.856,0.316-5.261-0.972-7.391-2.762c-1.652-1.39-2.864-3.104-3.648-5.131c-0.192-0.496-0.515-0.978-0.886-1.361
		c-1.398-1.446-1.944-3.076-1.66-5.119c0.239-1.723,0.129-3.494,0.187-5.242c0.044-1.319-0.013-2.656,0.19-3.952
		c0.435-2.777,1.94-4.9,4.419-6.232c5.66-3.041,11.366-2.971,17.002,0.031c3.05,1.625,4.317,4.413,4.498,7.752
		c0.057,1.074,0.008,2.153,0.008,3.229C88.697,31.465,88.657,31.467,88.617,31.47z"/>
	<path fill-rule="evenodd" clip-rule="evenodd" fill="#0FB2B6" d="M18.977,109.801c0-2.147,0-4.229,0-6.355
		c30.008,0,59.97,0,90.01,0c0,2.089,0,4.189,0,6.355C79.019,109.801,49.035,109.801,18.977,109.801z"/>
	<path fill-rule="evenodd" clip-rule="evenodd" fill="#24BDC7" d="M75.479,63.61c-3.789-0.075-2.707,0.566-4.671-2.789
		c-0.154-0.265-0.301-0.535-0.446-0.804c-0.947-1.741-0.563-2.869,1.287-3.522c2.572-0.911,5.178-0.909,7.75,0
		c1.823,0.644,2.234,1.758,1.337,3.438c-0.504,0.947-1.079,1.858-1.568,2.812c-0.324,0.63-0.79,0.889-1.477,0.869
		C76.954,63.594,76.216,63.61,75.479,63.61z"/>
</g>
</svg>
