<?xml version="1.0" encoding="utf-8"?>
<!-- Generator: Adobe Illustrator 16.0.0, SVG Export Plug-In . SVG Version: 6.00 Build 0)  -->
<!DOCTYPE svg PUBLIC "-//W3C//DTD SVG 1.1//EN" "http://www.w3.org/Graphics/SVG/1.1/DTD/svg11.dtd">
<svg version="1.1" id="Layer_1" xmlns="http://www.w3.org/2000/svg" xmlns:xlink="http://www.w3.org/1999/xlink" x="0px" y="0px"
	 width="128px" height="128px" viewBox="0 0 128 128" enable-background="new 0 0 128 128" xml:space="preserve">
<g>
	<path fill-rule="evenodd" clip-rule="evenodd" fill="#0FB2B6" d="M63.907,89.063c-12.346,0-24.692,0.003-37.038-0.002
		c-2.515-0.001-3.753-1.236-3.755-3.766c-0.006-16.918-0.004-33.836-0.004-50.754c0-2.622-0.009-5.243,0.005-7.865
		c0.014-2.564,1.274-3.808,3.829-3.808c24.784-0.002,49.568-0.004,74.352-0.005c2.22,0,3.594,1.396,3.595,3.702
		c0.006,9.938,0,19.876,0,29.813c0,9.45,0.001,18.9,0.001,28.351c0,0.305,0.008,0.609-0.004,0.914
		c-0.082,2.084-1.399,3.409-3.485,3.417c-4.847,0.021-9.693,0.006-14.54,0.006c-7.652,0-15.304,0-22.955,0
		C63.907,89.065,63.907,89.063,63.907,89.063z M100.008,78.665c0-0.393,0-0.722,0-1.05c0-15.546,0-31.094-0.002-46.641
		c0-2.156-1.239-3.401-3.406-3.402c-21.674-0.005-43.348-0.007-65.022-0.005c-2.443,0-3.566,1.119-3.586,3.583
		c-0.019,2.347,0,4.694,0,7.042c0,13.078-0.002,26.155,0,39.232c0,0.412,0.04,0.824,0.063,1.241
		C52.079,78.665,75.992,78.665,100.008,78.665z"/>
	<path fill-rule="evenodd" clip-rule="evenodd" fill="#0FB2B6" d="M75.625,92.692c0.609,3.496,1.234,6.997,1.821,10.504
		c0.188,1.123-0.608,1.926-1.86,1.929c-4.325,0.012-8.649,0.009-12.973,0.01c-3.594,0.001-7.187,0.006-10.781-0.001
		c-1.731-0.002-2.357-0.695-2.082-2.379c0.521-3.181,1.069-6.357,1.649-9.527c0.045-0.247,0.424-0.619,0.649-0.619
		c7.795-0.026,15.591-0.015,23.387-0.006C75.464,92.603,75.491,92.627,75.625,92.692z"/>
	<path fill-rule="evenodd" clip-rule="evenodd" fill="#FCBC55" d="M81.459,53.821c-0.104,0.678-0.208,1.356-0.312,2.033
		c-0.038,0.098-0.089,0.193-0.112,0.294c-0.48,2.049-1.313,3.946-2.591,5.616c-3.616,4.724-8.411,6.926-14.348,6.445
		c-3.445-0.278-6.472-1.648-9.051-3.964c-0.206-0.185-0.333-0.167-0.535-0.015c-0.965,0.722-1.94,1.431-2.912,2.145
		c-1.381,1.015-2.761,2.03-4.143,3.042c-0.815,0.598-1.718,0.793-2.682,0.478c-1.129-0.369-1.828-1.16-2.013-2.339
		c-0.189-1.211,0.272-2.174,1.25-2.893c2.314-1.701,4.627-3.402,6.95-5.09c0.274-0.199,0.335-0.348,0.187-0.677
		c-1.42-3.162-1.744-6.453-1.015-9.832c0.7-3.243,2.271-6.015,4.723-8.257c2.89-2.643,6.297-4.069,10.222-4.208
		c0.646-0.022,1.294,0.005,1.94,0.009c0.678,0.104,1.356,0.208,2.034,0.312c0.417,0.121,0.838,0.232,1.253,0.363
		c2.725,0.858,5.08,2.313,6.998,4.437c2.614,2.894,4.032,6.288,4.162,10.199C81.487,52.551,81.463,53.187,81.459,53.821z
		 M64.019,62.823c5.646,0.92,11.029-2.984,11.959-8.675c0.938-5.74-2.902-11.119-8.61-12.057c-5.81-0.955-11.159,2.888-12.121,8.707
		C54.305,56.5,58.229,61.88,64.019,62.823z"/>
</g>
</svg>
