<?xml version="1.0" encoding="utf-8"?>
<!-- Generator: Adobe Illustrator 16.0.0, SVG Export Plug-In . SVG Version: 6.00 Build 0)  -->
<!DOCTYPE svg PUBLIC "-//W3C//DTD SVG 1.1//EN" "http://www.w3.org/Graphics/SVG/1.1/DTD/svg11.dtd">
<svg version="1.1" id="Layer_1" xmlns="http://www.w3.org/2000/svg" xmlns:xlink="http://www.w3.org/1999/xlink" x="0px" y="0px"
	 width="128px" height="128px" viewBox="0 0 128 128" enable-background="new 0 0 128 128" xml:space="preserve">
<g>
	<path fill-rule="evenodd" clip-rule="evenodd" fill="#0FB2B6" d="M15.281,83.946c0.083-0.3,0.209-0.594,0.242-0.897
		c0.167-1.557,0.786-2.889,2.039-3.836c2.92-2.208,6.343-3.369,9.788-4.709c0.83,4.241,2.003,8.249,4.166,11.979
		c0.065-0.484,0.148-0.968,0.192-1.453c0.131-1.45,0.29-2.899,0.346-4.353c0.022-0.569-0.157-1.16-0.323-1.718
		c-0.143-0.48-0.429-0.918-0.595-1.395c-0.25-0.722,0.062-1.253,0.783-1.314c1.07-0.091,2.159-0.082,3.232-0.008
		c0.834,0.057,1.064,0.649,0.569,1.332c-1.564,2.159-2.244,4.578-2.226,7.224c0.014,2.115,0.002,4.231,0.002,6.498
		c-0.125,0-0.455,0-0.784,0c-4.315,0.001-8.631-0.002-12.946,0.003c-2.321,0.003-3.575-0.919-4.258-3.142
		c-0.044-0.144-0.15-0.269-0.227-0.403C15.281,86.484,15.281,85.216,15.281,83.946z"/>
	<path fill-rule="evenodd" clip-rule="evenodd" fill="#FCBC55" d="M54.761,71.697c1.254,6.203,3.123,11.983,6.091,17.448
		c0.055-0.219,0.141-0.435,0.159-0.657c0.269-3.28,0.544-6.562,0.772-9.846c0.03-0.44-0.123-0.928-0.308-1.341
		c-0.322-0.721-0.778-1.382-1.097-2.104c-0.47-1.063,0.04-1.957,1.205-2.007c1.647-0.071,3.302-0.071,4.949,0
		c1.155,0.051,1.628,0.948,1.175,2.024c-0.135,0.32-0.257,0.66-0.461,0.936c-0.838,1.129-1.017,2.318-0.842,3.738
		c0.344,2.794,0.445,5.617,0.656,8.428c0.02,0.267,0.098,0.529,0.255,0.805c2.908-5.433,4.731-11.22,5.984-17.341
		c0.744,0.283,1.411,0.533,2.073,0.792c3.42,1.344,6.831,2.712,10.261,4.028c3.695,1.42,5.621,4.077,5.728,8.03
		c0.038,1.428,0.09,2.86,0.005,4.283c-0.199,3.33-2.479,5.419-5.9,5.425c-9.333,0.017-18.665,0.007-27.997,0.008
		c-4.952,0-9.903,0.018-14.855-0.005c-2.493-0.012-4.425-1.016-5.458-3.391c-0.212-0.486-0.375-1.03-0.398-1.555
		c-0.114-2.532-0.249-5.072,0.408-7.563c0.545-2.063,1.828-3.634,3.726-4.457C45.42,75.415,50.021,73.626,54.761,71.697z"/>
	<path fill-rule="evenodd" clip-rule="evenodd" fill="#FCBC55" d="M52.733,57.708c-1.205,0.214-1.795-0.529-2.067-1.432
		c-0.389-1.291-0.732-2.628-0.834-3.966c-0.148-1.956,0.177-2.23,2.154-2.493c0-0.704-0.034-1.419,0.007-2.131
		c0.112-1.952,0.021-3.953,0.434-5.842c0.973-4.45,4.221-6.603,8.379-7.735c4.363-1.19,8.244,0.007,11.72,2.528
		c2.16,1.567,3.17,4.026,3.419,6.667c0.17,1.788,0.056,3.602,0.067,5.405c0.002,0.343,0,0.685,0,0.958
		c0.141,0.108,0.187,0.171,0.238,0.179c1.799,0.228,2.172,0.546,1.998,2.363c-0.136,1.428-0.518,2.847-0.919,4.233
		c-0.251,0.867-0.879,1.463-1.962,1.271c-0.707,3.082-2.065,5.825-4.081,8.19c-1.367,1.604-2.756,3.253-4.982,3.771
		c-2.005,0.465-4.054,0.526-5.823-0.514c-1.359-0.8-2.557-1.98-3.601-3.187C54.829,63.601,53.388,60.862,52.733,57.708z"/>
	<path fill-rule="evenodd" clip-rule="evenodd" fill="#0FB2B6" d="M94.521,83.269c-0.458-3.309-1.72-5.89-4.22-7.735
		c0.196-0.54,0.397-1.001,0.531-1.481c0.263-0.938,0.104-1.036-0.838-1.222c-1.635-0.322-3.283-0.658-4.855-1.196
		c-0.883-0.302-1.621-1.021-2.545-1.631c1.694-1.567,1.462-3.233,0.919-4.986c-1.34-4.329-1.33-8.614,0.634-12.777
		c0.738-1.565,1.702-3.017,3.188-3.952c0.741-0.467,1.682-0.616,2.534-0.905c0.26-0.088,0.587-0.09,0.777-0.255
		c1.825-1.585,3.951-1.611,6.107-1.081c5.512,1.357,8.314,5.231,9.48,10.517c0.509,2.308,0.229,4.591-0.455,6.845
		c-0.292,0.964-0.492,1.96-0.674,2.954c-0.185,1.008,0.016,1.983,0.645,2.792c0.454,0.585,0.265,0.956-0.188,1.368
		c-1.366,1.249-3.056,1.762-4.812,2.109c-0.618,0.122-1.253,0.189-1.883,0.229c-0.666,0.04-0.921,0.354-0.754,0.986
		c0.104,0.396,0.164,0.863,0.414,1.15c0.605,0.697,0.429,1.404,0.19,2.134C97.949,79.492,96.324,81.261,94.521,83.269z"/>
	<path fill-rule="evenodd" clip-rule="evenodd" fill="#0FB2B6" d="M41.811,63.805c-0.81,3.316-2.433,5.997-4.95,8.151
		c-1.666,1.426-5.068,1.339-6.708-0.099c-2.47-2.162-4.048-4.824-4.83-8.039c-1.076,0.17-1.495-0.537-1.736-1.372
		c-0.247-0.848-0.459-1.715-0.578-2.589c-0.156-1.146,0.286-1.653,1.666-2.043c0-1.456-0.125-2.95,0.042-4.411
		c0.125-1.099,0.359-2.382,1.029-3.173c0.813-0.959,1.623-1.939,2.463-2.883c0.419-0.471,1.067-0.841,1.68-1.018
		c3.064-0.882,6.048-0.733,8.92,0.811c2.128,1.144,3.129,2.999,3.421,5.275c0.205,1.594,0.21,3.212,0.354,4.816
		c0.023,0.257,0.257,0.64,0.474,0.709c0.923,0.293,1.159,1.009,1.063,1.791c-0.123,0.997-0.392,1.981-0.669,2.951
		C43.234,63.447,42.752,63.963,41.811,63.805z"/>
	<path fill-rule="evenodd" clip-rule="evenodd" fill="#0FB2B6" d="M94.398,91.291c0.069-0.989,0.109-1.871,0.207-2.746
		c0.024-0.225,0.193-0.461,0.355-0.64c2.301-2.533,4.152-5.36,5.521-8.497c0.244-0.56,0.585-0.688,1.013-0.335
		c0.48,0.398,0.913,0.868,1.297,1.361c0.284,0.369,0.457,0.824,0.8,1.205c0.188-2.08-0.419-3.949-1.781-5.891
		c1.28,0.376,2.343,0.597,3.332,0.999c1.576,0.643,3.159,1.309,4.64,2.139c2.205,1.237,2.82,3.404,2.912,5.747
		c0.046,1.166,0.047,2.357-0.139,3.504c-0.304,1.876-1.641,3.103-3.534,3.13C104.168,91.337,99.315,91.291,94.398,91.291z"/>
</g>
</svg>
